<?xml version="1.0" encoding="UTF-8"?>
<svg id="Capa_2" data-name="Capa 2" xmlns="http://www.w3.org/2000/svg" viewBox="0 0 112 112">
  <defs>
    <style>
      .cls-1 {
        fill: #1dd9dd;
      }
    </style>
  </defs>
  <g id="Capa_1-2" data-name="Capa 1">
    <g>
      <path class="cls-1" d="m2.2,40.47c-1.42,4.93-2.2,10.14-2.2,15.53,0,25.75,17.39,47.43,41.06,53.97-9.52-9.43-25.4-29.81-38.86-69.5Z"/>
      <path class="cls-1" d="m110.86,44.68c-16.97,26.68-35.03,42.92-35.03,42.92l-13-20c18.15-23.23,26.39-44.34,29.54-54.17C82.58,5.07,69.89,0,56,0c-10.33,0-20.01,2.81-28.32,7.69-.2,3.37-2.33,52.03,39.64,90.71l-12.96,13.55c.55.02,1.09.04,1.64.04,30.93,0,56-25.07,56-56,0-3.88-.39-7.66-1.14-11.32Z"/>
    </g>
  </g>
</svg>